<svg xmlns="http://www.w3.org/2000/svg" viewBox="0 0 800 1000" role="img" aria-labelledby="title desc">
  <title id="title">Feestfoto 3</title>
  <desc id="desc">Een derde kleurrijke placeholder-afbeelding voor de verjaardagsmodus.</desc>
  <defs>
    <linearGradient id="bg" x1="0%" x2="100%" y1="0%" y2="100%">
      <stop offset="0%" stop-color="#ffe5ec" />
      <stop offset="100%" stop-color="#ffcad4" />
    </linearGradient>
  </defs>
  <rect width="800" height="1000" fill="url(#bg)" />
  <circle cx="158" cy="212" r="56" fill="#ef476f" opacity="0.7" />
  <circle cx="642" cy="228" r="46" fill="#118ab2" opacity="0.8" />
  <circle cx="400" cy="355" r="150" fill="#f7c7a2" />
  <path d="M248 297c30-114 249-145 302-15 35 87 2 181 2 181H255s-28-83-7-166Z" fill="#8c5b3d" />
  <rect x="240" y="480" width="320" height="320" rx="42" fill="#ffd166" />
  <circle cx="345" cy="352" r="15" fill="#2f2f3b" />
  <circle cx="455" cy="352" r="15" fill="#2f2f3b" />
  <path d="M345 425c31 28 80 28 111 0" fill="none" stroke="#924646" stroke-linecap="round" stroke-width="13" />
  <path d="M280 505h240" stroke="#ffffff" stroke-width="16" stroke-linecap="round" />
  <path d="M320 560h160" stroke="#ffffff" stroke-width="16" stroke-linecap="round" />
  <text x="400" y="720" text-anchor="middle" font-family="Arial, sans-serif" font-size="82" font-weight="700" fill="#8f4a00">
    2 MEI
  </text>
</svg>
